<svg width="48" height="47" viewBox="0 0 48 47" fill="none" xmlns="http://www.w3.org/2000/svg">
<path fill-rule="evenodd" clip-rule="evenodd" d="M24 0.151123C37.2548 0.151123 48 10.6687 48 23.6428C48 35.3682 39.2235 45.0868 27.75 46.8491V30.4334H33.3422L34.4062 23.6428H34.2908L34.3021 23.5703H27.75V19.2361C27.75 17.3784 28.6798 15.5675 31.6612 15.5675H34.6875V9.78638C34.6875 9.78638 34.6515 9.78038 34.5839 9.76973V9.66137C34.5839 9.66137 31.832 9.20081 29.201 9.20081C23.7082 9.20081 20.1181 12.4653 20.1181 18.3752V23.5703H14.0125V30.3867H14.1562V30.4334H20.1181V46.8285C8.70928 45.0122 0 35.3232 0 23.6428C0 10.6687 10.7452 0.151123 24 0.151123Z" fill="white"/>
</svg>
