<svg width="94" height="94" viewBox="0 0 94 94" fill="none" xmlns="http://www.w3.org/2000/svg">
<path d="M47 17.7333C37.773 9.46617 23.5833 9.76607 14.7163 18.633C5.53901 27.8103 5.53901 42.6897 14.7163 51.867L41.461 78.6117C44.5201 81.6708 49.4799 81.6708 52.539 78.6117L79.2837 51.867C88.461 42.6897 88.461 27.8103 79.2837 18.633C70.4168 9.76607 56.227 9.46617 47 17.7333ZM42.4114 24.172L44.2305 25.9912C45.7601 27.5207 48.24 27.5207 49.7695 25.9912L51.5887 24.172C57.7069 18.0538 67.6265 18.0538 73.7447 24.172C79.8629 30.2902 79.8629 40.2098 73.7447 46.328L47 73.0727L20.2553 46.328C14.1371 40.2098 14.1371 30.2902 20.2553 24.172C26.3736 18.0538 36.2931 18.0538 42.4114 24.172Z" fill="#FFFDFD"/>
</svg>
