<svg width="45" height="45" viewBox="0 0 45 45" fill="none" xmlns="http://www.w3.org/2000/svg">
<path fill-rule="evenodd" clip-rule="evenodd" d="M44.8647 13.5197C44.7552 11.2011 44.3748 9.61768 43.8186 8.23238C43.2539 6.77895 42.3681 5.46245 41.2234 4.37428C40.0998 3.26618 38.7395 2.40834 37.2382 1.86127C35.8068 1.32317 34.1716 0.955238 31.7766 0.849879C29.3771 0.743522 28.6105 0.718262 22.5 0.718262C16.3895 0.718262 15.6229 0.743522 13.2234 0.849214C10.8284 0.955238 9.19315 1.3235 7.76184 1.86193C6.26049 2.40867 4.90059 3.26618 3.77655 4.37428C2.63191 5.46212 1.7458 6.77862 1.18069 8.23205C0.624847 9.61768 0.244789 11.2011 0.135956 13.5193C0.0260925 15.8426 0 16.5844 0 22.4998C0 28.4156 0.0260925 29.1578 0.135956 31.4807C0.245132 33.7989 0.625534 35.3823 1.18172 36.768C1.74648 38.2211 2.63226 39.5379 3.77689 40.6257C4.90059 41.7338 6.26083 42.5914 7.76218 43.1381C9.19315 43.6769 10.8287 44.0448 13.2238 44.1508C15.6236 44.2568 16.3899 44.2818 22.5003 44.2818C28.6108 44.2818 29.3774 44.2568 31.7769 44.1508C34.1719 44.0448 35.8072 43.6769 37.2385 43.1381C40.2608 42.0067 42.65 39.6938 43.8186 36.768C44.3752 35.3823 44.7552 33.7989 44.8647 31.4807C44.9739 29.1575 45 28.4156 45 22.5002C45 16.5844 44.9739 15.8426 44.8647 13.5197ZM40.8146 31.3022C40.7146 33.426 40.348 34.5793 40.04 35.3468C39.283 37.2466 37.7322 38.7479 35.7698 39.4807C34.977 39.7789 33.7857 40.1338 31.5919 40.2306C29.2199 40.3356 28.5081 40.3575 22.5 40.3575C16.4915 40.3575 15.7801 40.3356 13.4078 40.2306C11.2143 40.1338 10.023 39.7789 9.22989 39.4807C8.25279 39.1314 7.36874 38.5747 6.64295 37.8512C5.89554 37.1485 5.32047 36.293 4.95964 35.3468C4.65168 34.5793 4.28501 33.426 4.1851 31.3022C4.07696 29.0056 4.05396 28.3166 4.05396 22.5005C4.05396 16.6841 4.07696 15.9954 4.1851 13.6985C4.28535 11.5747 4.65168 10.4213 4.95964 9.65391C5.32047 8.70767 5.89588 7.85183 6.64295 7.1492C7.36874 6.42564 8.25279 5.86893 9.23023 5.51995C10.023 5.22148 11.2143 4.86685 13.4081 4.7698C15.7805 4.6651 16.4922 4.64284 22.5 4.64284C28.5075 4.64284 29.2192 4.66511 31.5919 4.77013C33.7857 4.86685 34.9767 5.22182 35.7698 5.51995C36.7469 5.86926 37.6309 6.42598 38.3567 7.1492C39.1041 7.85183 39.6792 8.70767 40.0397 9.65391C40.348 10.4213 40.7146 11.5747 40.8146 13.6985C40.9227 15.9951 40.9457 16.6841 40.9457 22.5002C40.9457 28.3166 40.923 29.0052 40.8146 31.3022ZM22.4997 11.3147C16.1187 11.3147 10.9458 16.3228 10.9458 22.5002C10.9458 28.6775 16.1187 33.6853 22.4997 33.6853C28.881 33.6853 34.0538 28.6775 34.0538 22.5002C34.0538 16.3228 28.881 11.3147 22.4997 11.3147ZM22.4997 29.7607C18.3578 29.7604 14.9998 26.5098 15.0001 22.4998C15.0001 18.4902 18.3578 15.2393 22.5 15.2393C26.6422 15.2397 29.9999 18.4902 29.9999 22.4998C29.9999 26.5098 26.6418 29.7607 22.4997 29.7607ZM34.5105 13.4868C36.0015 13.4868 37.2103 12.3165 37.2103 10.873C37.2103 9.42923 36.0015 8.25897 34.5105 8.25897C33.0191 8.25897 31.8102 9.42923 31.8102 10.873C31.8102 12.3165 33.0191 13.4868 34.5105 13.4868Z" fill="white"/>
</svg>
