<svg width="50" height="50" viewBox="0 0 50 50" fill="none" xmlns="http://www.w3.org/2000/svg">
<path d="M50 9.49735C48.1597 10.313 46.1838 10.864 44.1099 11.1118C46.2264 9.84322 47.8551 7.83255 48.6191 5.43731C46.6381 6.61428 44.4416 7.46733 42.1057 7.92676C40.2357 5.93416 37.5707 4.6875 34.6217 4.6875C28.9575 4.6875 24.3657 9.28054 24.3657 14.9434C24.3657 15.7475 24.456 16.5295 24.6328 17.2819C16.1074 16.8534 8.55122 12.7702 3.49224 6.56524C2.6095 8.07905 2.10361 9.84193 2.10361 11.721C2.10361 15.279 3.55548 18.4189 6.30824 20.2579C4.62664 20.2037 2.59789 19.743 1.30733 18.9738V19.1029C1.30733 24.0727 5.19836 28.2167 9.88953 29.1588C9.02744 29.3937 8.29956 29.5201 7.3652 29.5201C6.70444 29.5201 6.15079 29.4556 5.52487 29.3356C6.8322 33.4085 10.6652 36.3755 15.1511 36.4581C11.6421 39.2082 7.24131 40.8485 2.43786 40.8485C1.60803 40.8485 0.804016 40.7995 0 40.7053C4.53888 43.6154 9.9347 45.3125 15.7267 45.3125C34.5921 45.3125 44.91 29.6853 44.91 16.1333C44.91 15.6881 44.8997 15.2454 44.8817 14.8066C46.8859 13.3612 48.6268 11.5532 50 9.49735Z" fill="white"/>
</svg>
